<mxfile host="app.diagrams.net" modified="2022-09-12T19:58:53.226Z" agent="5.0 (Windows NT 10.0; Win64; x64) AppleWebKit/537.36 (KHTML, like Gecko) Chrome/105.0.0.0 Safari/537.36" etag="5F1-8c4Gj_dAFTLNrbJY" version="20.3.0" type="github">
  <diagram id="C5RBs43oDa-KdzZeNtuy" name="Page-1">
    <mxGraphModel dx="2462" dy="-129" grid="0" gridSize="10" guides="1" tooltips="1" connect="1" arrows="1" fold="1" page="0" pageScale="1" pageWidth="827" pageHeight="1169" math="0" shadow="0">
      <root>
        <mxCell id="WIyWlLk6GJQsqaUBKTNV-0" />
        <mxCell id="WIyWlLk6GJQsqaUBKTNV-1" parent="WIyWlLk6GJQsqaUBKTNV-0" />
        <mxCell id="qCbtmwH_ulc4m0rFLGFR-251" style="edgeStyle=orthogonalEdgeStyle;orthogonalLoop=1;jettySize=auto;html=1;exitX=0.5;exitY=0;exitDx=0;exitDy=0;rounded=0;" edge="1" parent="WIyWlLk6GJQsqaUBKTNV-1" source="qCbtmwH_ulc4m0rFLGFR-3">
          <mxGeometry relative="1" as="geometry">
            <mxPoint x="1156.047619047619" y="1880" as="targetPoint" />
          </mxGeometry>
        </mxCell>
        <mxCell id="qCbtmwH_ulc4m0rFLGFR-3" value="Usuario" style="swimlane;fontStyle=0;childLayout=stackLayout;horizontal=1;startSize=26;fillColor=none;horizontalStack=0;resizeParent=1;resizeParentMax=0;resizeLast=0;collapsible=1;marginBottom=0;" vertex="1" parent="WIyWlLk6GJQsqaUBKTNV-1">
          <mxGeometry x="1071" y="2040" width="170" height="156" as="geometry">
            <mxRectangle x="130" y="160" width="100" height="30" as="alternateBounds" />
          </mxGeometry>
        </mxCell>
        <mxCell id="qCbtmwH_ulc4m0rFLGFR-4" value="nome: Integer" style="text;strokeColor=none;fillColor=none;align=left;verticalAlign=top;spacingLeft=4;spacingRight=4;overflow=hidden;rotatable=0;points=[[0,0.5],[1,0.5]];portConstraint=eastwest;" vertex="1" parent="qCbtmwH_ulc4m0rFLGFR-3">
          <mxGeometry y="26" width="170" height="26" as="geometry" />
        </mxCell>
        <mxCell id="qCbtmwH_ulc4m0rFLGFR-5" value="seguidores: Integer" style="text;strokeColor=none;fillColor=none;align=left;verticalAlign=top;spacingLeft=4;spacingRight=4;overflow=hidden;rotatable=0;points=[[0,0.5],[1,0.5]];portConstraint=eastwest;" vertex="1" parent="qCbtmwH_ulc4m0rFLGFR-3">
          <mxGeometry y="52" width="170" height="26" as="geometry" />
        </mxCell>
        <mxCell id="qCbtmwH_ulc4m0rFLGFR-6" value="seguidor: Integer" style="text;strokeColor=none;fillColor=none;align=left;verticalAlign=top;spacingLeft=4;spacingRight=4;overflow=hidden;rotatable=0;points=[[0,0.5],[1,0.5]];portConstraint=eastwest;" vertex="1" parent="qCbtmwH_ulc4m0rFLGFR-3">
          <mxGeometry y="78" width="170" height="26" as="geometry" />
        </mxCell>
        <mxCell id="qCbtmwH_ulc4m0rFLGFR-9" value="linguagem_escolhida: String" style="text;strokeColor=none;fillColor=none;align=left;verticalAlign=top;spacingLeft=4;spacingRight=4;overflow=hidden;rotatable=0;points=[[0,0.5],[1,0.5]];portConstraint=eastwest;" vertex="1" parent="qCbtmwH_ulc4m0rFLGFR-3">
          <mxGeometry y="104" width="170" height="26" as="geometry" />
        </mxCell>
        <mxCell id="qCbtmwH_ulc4m0rFLGFR-11" value="" style="endArrow=none;html=1;entryX=0.986;entryY=0.038;entryDx=0;entryDy=0;entryPerimeter=0;rounded=0;" edge="1" parent="qCbtmwH_ulc4m0rFLGFR-3" target="qCbtmwH_ulc4m0rFLGFR-10">
          <mxGeometry width="50" height="50" relative="1" as="geometry">
            <mxPoint y="130" as="sourcePoint" />
            <mxPoint x="70" y="130" as="targetPoint" />
          </mxGeometry>
        </mxCell>
        <mxCell id="qCbtmwH_ulc4m0rFLGFR-10" value="editarPerfil()" style="text;strokeColor=none;fillColor=none;align=left;verticalAlign=top;spacingLeft=4;spacingRight=4;overflow=hidden;rotatable=0;points=[[0,0.5],[1,0.5]];portConstraint=eastwest;" vertex="1" parent="qCbtmwH_ulc4m0rFLGFR-3">
          <mxGeometry y="130" width="170" height="26" as="geometry" />
        </mxCell>
        <mxCell id="qCbtmwH_ulc4m0rFLGFR-13" value="Amigo" style="swimlane;fontStyle=1;align=center;verticalAlign=top;childLayout=stackLayout;horizontal=1;startSize=26;horizontalStack=0;resizeParent=1;resizeParentMax=0;resizeLast=0;collapsible=1;marginBottom=0;" vertex="1" parent="WIyWlLk6GJQsqaUBKTNV-1">
          <mxGeometry x="602" y="2116" width="149" height="164" as="geometry" />
        </mxCell>
        <mxCell id="qCbtmwH_ulc4m0rFLGFR-14" value="nome:String" style="text;strokeColor=none;fillColor=none;align=left;verticalAlign=top;spacingLeft=4;spacingRight=4;overflow=hidden;rotatable=0;points=[[0,0.5],[1,0.5]];portConstraint=eastwest;" vertex="1" parent="qCbtmwH_ulc4m0rFLGFR-13">
          <mxGeometry y="26" width="149" height="26" as="geometry" />
        </mxCell>
        <mxCell id="qCbtmwH_ulc4m0rFLGFR-16" value="xp:Integer" style="text;strokeColor=none;fillColor=none;align=left;verticalAlign=top;spacingLeft=4;spacingRight=4;overflow=hidden;rotatable=0;points=[[0,0.5],[1,0.5]];portConstraint=eastwest;" vertex="1" parent="qCbtmwH_ulc4m0rFLGFR-13">
          <mxGeometry y="52" width="149" height="26" as="geometry" />
        </mxCell>
        <mxCell id="qCbtmwH_ulc4m0rFLGFR-15" value="" style="line;strokeWidth=1;fillColor=none;align=left;verticalAlign=middle;spacingTop=-1;spacingLeft=3;spacingRight=3;rotatable=0;labelPosition=right;points=[];portConstraint=eastwest;strokeColor=inherit;" vertex="1" parent="qCbtmwH_ulc4m0rFLGFR-13">
          <mxGeometry y="78" width="149" height="8" as="geometry" />
        </mxCell>
        <mxCell id="qCbtmwH_ulc4m0rFLGFR-17" value="buscarAmigos()" style="text;strokeColor=none;fillColor=none;align=left;verticalAlign=top;spacingLeft=4;spacingRight=4;overflow=hidden;rotatable=0;points=[[0,0.5],[1,0.5]];portConstraint=eastwest;" vertex="1" parent="qCbtmwH_ulc4m0rFLGFR-13">
          <mxGeometry y="86" width="149" height="26" as="geometry" />
        </mxCell>
        <mxCell id="qCbtmwH_ulc4m0rFLGFR-18" value="convidarAmigo()" style="text;strokeColor=none;fillColor=none;align=left;verticalAlign=top;spacingLeft=4;spacingRight=4;overflow=hidden;rotatable=0;points=[[0,0.5],[1,0.5]];portConstraint=eastwest;" vertex="1" parent="qCbtmwH_ulc4m0rFLGFR-13">
          <mxGeometry y="112" width="149" height="26" as="geometry" />
        </mxCell>
        <mxCell id="qCbtmwH_ulc4m0rFLGFR-19" value="adicionarPorRedesocial()" style="text;strokeColor=none;fillColor=none;align=left;verticalAlign=top;spacingLeft=4;spacingRight=4;overflow=hidden;rotatable=0;points=[[0,0.5],[1,0.5]];portConstraint=eastwest;" vertex="1" parent="qCbtmwH_ulc4m0rFLGFR-13">
          <mxGeometry y="138" width="149" height="26" as="geometry" />
        </mxCell>
        <mxCell id="qCbtmwH_ulc4m0rFLGFR-253" style="edgeStyle=orthogonalEdgeStyle;orthogonalLoop=1;jettySize=auto;html=1;exitX=0.5;exitY=0;exitDx=0;exitDy=0;entryX=0;entryY=0.5;entryDx=0;entryDy=0;rounded=0;" edge="1" parent="WIyWlLk6GJQsqaUBKTNV-1" source="qCbtmwH_ulc4m0rFLGFR-24" target="qCbtmwH_ulc4m0rFLGFR-228">
          <mxGeometry relative="1" as="geometry" />
        </mxCell>
        <mxCell id="qCbtmwH_ulc4m0rFLGFR-24" value="Conquista" style="swimlane;fontStyle=1;align=center;verticalAlign=top;childLayout=stackLayout;horizontal=1;startSize=26;horizontalStack=0;resizeParent=1;resizeParentMax=0;resizeLast=0;collapsible=1;marginBottom=0;" vertex="1" parent="WIyWlLk6GJQsqaUBKTNV-1">
          <mxGeometry x="290" y="1940" width="200" height="138" as="geometry" />
        </mxCell>
        <mxCell id="qCbtmwH_ulc4m0rFLGFR-25" value="titulo:String" style="text;strokeColor=none;fillColor=none;align=left;verticalAlign=top;spacingLeft=4;spacingRight=4;overflow=hidden;rotatable=0;points=[[0,0.5],[1,0.5]];portConstraint=eastwest;" vertex="1" parent="qCbtmwH_ulc4m0rFLGFR-24">
          <mxGeometry y="26" width="200" height="26" as="geometry" />
        </mxCell>
        <mxCell id="qCbtmwH_ulc4m0rFLGFR-28" value="objetivo:String" style="text;strokeColor=none;fillColor=none;align=left;verticalAlign=top;spacingLeft=4;spacingRight=4;overflow=hidden;rotatable=0;points=[[0,0.5],[1,0.5]];portConstraint=eastwest;" vertex="1" parent="qCbtmwH_ulc4m0rFLGFR-24">
          <mxGeometry y="52" width="200" height="26" as="geometry" />
        </mxCell>
        <mxCell id="qCbtmwH_ulc4m0rFLGFR-29" value="progressoObj:Integer" style="text;strokeColor=none;fillColor=none;align=left;verticalAlign=top;spacingLeft=4;spacingRight=4;overflow=hidden;rotatable=0;points=[[0,0.5],[1,0.5]];portConstraint=eastwest;" vertex="1" parent="qCbtmwH_ulc4m0rFLGFR-24">
          <mxGeometry y="78" width="200" height="26" as="geometry" />
        </mxCell>
        <mxCell id="qCbtmwH_ulc4m0rFLGFR-26" value="" style="line;strokeWidth=1;fillColor=none;align=left;verticalAlign=middle;spacingTop=-1;spacingLeft=3;spacingRight=3;rotatable=0;labelPosition=right;points=[];portConstraint=eastwest;strokeColor=inherit;" vertex="1" parent="qCbtmwH_ulc4m0rFLGFR-24">
          <mxGeometry y="104" width="200" height="8" as="geometry" />
        </mxCell>
        <mxCell id="qCbtmwH_ulc4m0rFLGFR-27" value="verificarProgresso(Integer):Boolean" style="text;strokeColor=none;fillColor=none;align=left;verticalAlign=top;spacingLeft=4;spacingRight=4;overflow=hidden;rotatable=0;points=[[0,0.5],[1,0.5]];portConstraint=eastwest;" vertex="1" parent="qCbtmwH_ulc4m0rFLGFR-24">
          <mxGeometry y="112" width="200" height="26" as="geometry" />
        </mxCell>
        <mxCell id="qCbtmwH_ulc4m0rFLGFR-254" style="edgeStyle=orthogonalEdgeStyle;orthogonalLoop=1;jettySize=auto;html=1;exitX=0.25;exitY=0;exitDx=0;exitDy=0;entryX=0.311;entryY=0.962;entryDx=0;entryDy=0;entryPerimeter=0;rounded=0;" edge="1" parent="WIyWlLk6GJQsqaUBKTNV-1" source="qCbtmwH_ulc4m0rFLGFR-198" target="qCbtmwH_ulc4m0rFLGFR-212">
          <mxGeometry relative="1" as="geometry" />
        </mxCell>
        <mxCell id="qCbtmwH_ulc4m0rFLGFR-198" value="Licao" style="swimlane;fontStyle=1;align=center;verticalAlign=top;childLayout=stackLayout;horizontal=1;startSize=26;horizontalStack=0;resizeParent=1;resizeParentMax=0;resizeLast=0;collapsible=1;marginBottom=0;" vertex="1" parent="WIyWlLk6GJQsqaUBKTNV-1">
          <mxGeometry x="414" y="1434" width="240" height="372" as="geometry" />
        </mxCell>
        <mxCell id="qCbtmwH_ulc4m0rFLGFR-225" value="mensagem:String" style="text;strokeColor=none;fillColor=none;align=left;verticalAlign=top;spacingLeft=4;spacingRight=4;overflow=hidden;rotatable=0;points=[[0,0.5],[1,0.5]];portConstraint=eastwest;" vertex="1" parent="qCbtmwH_ulc4m0rFLGFR-198">
          <mxGeometry y="26" width="240" height="26" as="geometry" />
        </mxCell>
        <mxCell id="qCbtmwH_ulc4m0rFLGFR-227" value="isFala:Boolean" style="text;strokeColor=none;fillColor=none;align=left;verticalAlign=top;spacingLeft=4;spacingRight=4;overflow=hidden;rotatable=0;points=[[0,0.5],[1,0.5]];portConstraint=eastwest;" vertex="1" parent="qCbtmwH_ulc4m0rFLGFR-198">
          <mxGeometry y="52" width="240" height="26" as="geometry" />
        </mxCell>
        <mxCell id="qCbtmwH_ulc4m0rFLGFR-226" value="isDigita:Boolean" style="text;strokeColor=none;fillColor=none;align=left;verticalAlign=top;spacingLeft=4;spacingRight=4;overflow=hidden;rotatable=0;points=[[0,0.5],[1,0.5]];portConstraint=eastwest;" vertex="1" parent="qCbtmwH_ulc4m0rFLGFR-198">
          <mxGeometry y="78" width="240" height="26" as="geometry" />
        </mxCell>
        <mxCell id="qCbtmwH_ulc4m0rFLGFR-199" value="isSeleciona:Boolean" style="text;strokeColor=none;fillColor=none;align=left;verticalAlign=top;spacingLeft=4;spacingRight=4;overflow=hidden;rotatable=0;points=[[0,0.5],[1,0.5]];portConstraint=eastwest;" vertex="1" parent="qCbtmwH_ulc4m0rFLGFR-198">
          <mxGeometry y="104" width="240" height="26" as="geometry" />
        </mxCell>
        <mxCell id="qCbtmwH_ulc4m0rFLGFR-200" value="" style="line;strokeWidth=1;fillColor=none;align=left;verticalAlign=middle;spacingTop=-1;spacingLeft=3;spacingRight=3;rotatable=0;labelPosition=right;points=[];portConstraint=eastwest;strokeColor=inherit;" vertex="1" parent="qCbtmwH_ulc4m0rFLGFR-198">
          <mxGeometry y="130" width="240" height="8" as="geometry" />
        </mxCell>
        <mxCell id="qCbtmwH_ulc4m0rFLGFR-201" value="verificarReposta(String):String" style="text;strokeColor=none;fillColor=none;align=left;verticalAlign=top;spacingLeft=4;spacingRight=4;overflow=hidden;rotatable=0;points=[[0,0.5],[1,0.5]];portConstraint=eastwest;" vertex="1" parent="qCbtmwH_ulc4m0rFLGFR-198">
          <mxGeometry y="138" width="240" height="26" as="geometry" />
        </mxCell>
        <mxCell id="qCbtmwH_ulc4m0rFLGFR-202" value="reproduzSom()" style="text;strokeColor=none;fillColor=none;align=left;verticalAlign=top;spacingLeft=4;spacingRight=4;overflow=hidden;rotatable=0;points=[[0,0.5],[1,0.5]];portConstraint=eastwest;" vertex="1" parent="qCbtmwH_ulc4m0rFLGFR-198">
          <mxGeometry y="164" width="240" height="26" as="geometry" />
        </mxCell>
        <mxCell id="qCbtmwH_ulc4m0rFLGFR-203" value="reconheceFala()" style="text;strokeColor=none;fillColor=none;align=left;verticalAlign=top;spacingLeft=4;spacingRight=4;overflow=hidden;rotatable=0;points=[[0,0.5],[1,0.5]];portConstraint=eastwest;" vertex="1" parent="qCbtmwH_ulc4m0rFLGFR-198">
          <mxGeometry y="190" width="240" height="26" as="geometry" />
        </mxCell>
        <mxCell id="qCbtmwH_ulc4m0rFLGFR-204" value="conclusaoLicao():Boolean" style="text;strokeColor=none;fillColor=none;align=left;verticalAlign=top;spacingLeft=4;spacingRight=4;overflow=hidden;rotatable=0;points=[[0,0.5],[1,0.5]];portConstraint=eastwest;" vertex="1" parent="qCbtmwH_ulc4m0rFLGFR-198">
          <mxGeometry y="216" width="240" height="26" as="geometry" />
        </mxCell>
        <mxCell id="qCbtmwH_ulc4m0rFLGFR-205" value="conclusaoNivel():Boolean" style="text;strokeColor=none;fillColor=none;align=left;verticalAlign=top;spacingLeft=4;spacingRight=4;overflow=hidden;rotatable=0;points=[[0,0.5],[1,0.5]];portConstraint=eastwest;" vertex="1" parent="qCbtmwH_ulc4m0rFLGFR-198">
          <mxGeometry y="242" width="240" height="26" as="geometry" />
        </mxCell>
        <mxCell id="qCbtmwH_ulc4m0rFLGFR-206" value="avancoExercicio():Boolean" style="text;strokeColor=none;fillColor=none;align=left;verticalAlign=top;spacingLeft=4;spacingRight=4;overflow=hidden;rotatable=0;points=[[0,0.5],[1,0.5]];portConstraint=eastwest;" vertex="1" parent="qCbtmwH_ulc4m0rFLGFR-198">
          <mxGeometry y="268" width="240" height="26" as="geometry" />
        </mxCell>
        <mxCell id="qCbtmwH_ulc4m0rFLGFR-207" value="avancaSecao(): Boolean" style="text;strokeColor=none;fillColor=none;align=left;verticalAlign=top;spacingLeft=4;spacingRight=4;overflow=hidden;rotatable=0;points=[[0,0.5],[1,0.5]];portConstraint=eastwest;" vertex="1" parent="qCbtmwH_ulc4m0rFLGFR-198">
          <mxGeometry y="294" width="240" height="26" as="geometry" />
        </mxCell>
        <mxCell id="qCbtmwH_ulc4m0rFLGFR-208" value="verificarMeta(): Integer" style="text;strokeColor=none;fillColor=none;align=left;verticalAlign=top;spacingLeft=4;spacingRight=4;overflow=hidden;rotatable=0;points=[[0,0.5],[1,0.5]];portConstraint=eastwest;" vertex="1" parent="qCbtmwH_ulc4m0rFLGFR-198">
          <mxGeometry y="320" width="240" height="26" as="geometry" />
        </mxCell>
        <mxCell id="qCbtmwH_ulc4m0rFLGFR-228" value="incrementaOFensiva(): Integer" style="text;strokeColor=none;fillColor=none;align=left;verticalAlign=top;spacingLeft=4;spacingRight=4;overflow=hidden;rotatable=0;points=[[0,0.5],[1,0.5]];portConstraint=eastwest;" vertex="1" parent="qCbtmwH_ulc4m0rFLGFR-198">
          <mxGeometry y="346" width="240" height="26" as="geometry" />
        </mxCell>
        <mxCell id="qCbtmwH_ulc4m0rFLGFR-209" value="ErroResposta" style="swimlane;fontStyle=1;align=center;verticalAlign=top;childLayout=stackLayout;horizontal=1;startSize=26;horizontalStack=0;resizeParent=1;resizeParentMax=0;resizeLast=0;collapsible=1;marginBottom=0;" vertex="1" parent="WIyWlLk6GJQsqaUBKTNV-1">
          <mxGeometry x="446" y="1244" width="180" height="112" as="geometry" />
        </mxCell>
        <mxCell id="qCbtmwH_ulc4m0rFLGFR-210" value="mensagem: String" style="text;strokeColor=none;fillColor=none;align=left;verticalAlign=top;spacingLeft=4;spacingRight=4;overflow=hidden;rotatable=0;points=[[0,0.5],[1,0.5]];portConstraint=eastwest;" vertex="1" parent="qCbtmwH_ulc4m0rFLGFR-209">
          <mxGeometry y="26" width="180" height="26" as="geometry" />
        </mxCell>
        <mxCell id="qCbtmwH_ulc4m0rFLGFR-230" value="isErro: Boolean" style="text;strokeColor=none;fillColor=none;align=left;verticalAlign=top;spacingLeft=4;spacingRight=4;overflow=hidden;rotatable=0;points=[[0,0.5],[1,0.5]];portConstraint=eastwest;" vertex="1" parent="qCbtmwH_ulc4m0rFLGFR-209">
          <mxGeometry y="52" width="180" height="26" as="geometry" />
        </mxCell>
        <mxCell id="qCbtmwH_ulc4m0rFLGFR-211" value="" style="line;strokeWidth=1;fillColor=none;align=left;verticalAlign=middle;spacingTop=-1;spacingLeft=3;spacingRight=3;rotatable=0;labelPosition=right;points=[];portConstraint=eastwest;strokeColor=inherit;" vertex="1" parent="qCbtmwH_ulc4m0rFLGFR-209">
          <mxGeometry y="78" width="180" height="8" as="geometry" />
        </mxCell>
        <mxCell id="qCbtmwH_ulc4m0rFLGFR-212" value="ErroResposta(String, Boolean)" style="text;strokeColor=none;fillColor=none;align=left;verticalAlign=top;spacingLeft=4;spacingRight=4;overflow=hidden;rotatable=0;points=[[0,0.5],[1,0.5]];portConstraint=eastwest;" vertex="1" parent="qCbtmwH_ulc4m0rFLGFR-209">
          <mxGeometry y="86" width="180" height="26" as="geometry" />
        </mxCell>
        <mxCell id="qCbtmwH_ulc4m0rFLGFR-237" style="edgeStyle=orthogonalEdgeStyle;orthogonalLoop=1;jettySize=auto;html=1;exitX=0.75;exitY=0;exitDx=0;exitDy=0;entryX=0.514;entryY=1.022;entryDx=0;entryDy=0;entryPerimeter=0;rounded=0;" edge="1" parent="WIyWlLk6GJQsqaUBKTNV-1" source="qCbtmwH_ulc4m0rFLGFR-213" target="qCbtmwH_ulc4m0rFLGFR-246">
          <mxGeometry relative="1" as="geometry" />
        </mxCell>
        <mxCell id="qCbtmwH_ulc4m0rFLGFR-260" style="edgeStyle=orthogonalEdgeStyle;orthogonalLoop=1;jettySize=auto;html=1;exitX=0.25;exitY=0;exitDx=0;exitDy=0;entryX=0.759;entryY=1.004;entryDx=0;entryDy=0;entryPerimeter=0;rounded=0;" edge="1" parent="WIyWlLk6GJQsqaUBKTNV-1" source="qCbtmwH_ulc4m0rFLGFR-213" target="qCbtmwH_ulc4m0rFLGFR-259">
          <mxGeometry relative="1" as="geometry" />
        </mxCell>
        <mxCell id="qCbtmwH_ulc4m0rFLGFR-213" value="Divisao" style="swimlane;fontStyle=1;align=center;verticalAlign=top;childLayout=stackLayout;horizontal=1;startSize=26;horizontalStack=0;resizeParent=1;resizeParentMax=0;resizeLast=0;collapsible=1;marginBottom=0;" vertex="1" parent="WIyWlLk6GJQsqaUBKTNV-1">
          <mxGeometry x="1000" y="1683" width="230" height="190" as="geometry" />
        </mxCell>
        <mxCell id="qCbtmwH_ulc4m0rFLGFR-214" value="zona_promo: Integer" style="text;strokeColor=none;fillColor=none;align=left;verticalAlign=top;spacingLeft=4;spacingRight=4;overflow=hidden;rotatable=0;points=[[0,0.5],[1,0.5]];portConstraint=eastwest;" vertex="1" parent="qCbtmwH_ulc4m0rFLGFR-213">
          <mxGeometry y="26" width="230" height="26" as="geometry" />
        </mxCell>
        <mxCell id="qCbtmwH_ulc4m0rFLGFR-233" value="colocao: Integer" style="text;strokeColor=none;fillColor=none;align=left;verticalAlign=top;spacingLeft=4;spacingRight=4;overflow=hidden;rotatable=0;points=[[0,0.5],[1,0.5]];portConstraint=eastwest;" vertex="1" parent="qCbtmwH_ulc4m0rFLGFR-213">
          <mxGeometry y="52" width="230" height="26" as="geometry" />
        </mxCell>
        <mxCell id="qCbtmwH_ulc4m0rFLGFR-234" value="zona_desce: Integer" style="text;strokeColor=none;fillColor=none;align=left;verticalAlign=top;spacingLeft=4;spacingRight=4;overflow=hidden;rotatable=0;points=[[0,0.5],[1,0.5]];portConstraint=eastwest;" vertex="1" parent="qCbtmwH_ulc4m0rFLGFR-213">
          <mxGeometry y="78" width="230" height="26" as="geometry" />
        </mxCell>
        <mxCell id="qCbtmwH_ulc4m0rFLGFR-215" value="" style="line;strokeWidth=1;fillColor=none;align=left;verticalAlign=middle;spacingTop=-1;spacingLeft=3;spacingRight=3;rotatable=0;labelPosition=right;points=[];portConstraint=eastwest;strokeColor=inherit;" vertex="1" parent="qCbtmwH_ulc4m0rFLGFR-213">
          <mxGeometry y="104" width="230" height="8" as="geometry" />
        </mxCell>
        <mxCell id="qCbtmwH_ulc4m0rFLGFR-216" value="setRank: ()" style="text;strokeColor=none;fillColor=none;align=left;verticalAlign=top;spacingLeft=4;spacingRight=4;overflow=hidden;rotatable=0;points=[[0,0.5],[1,0.5]];portConstraint=eastwest;" vertex="1" parent="qCbtmwH_ulc4m0rFLGFR-213">
          <mxGeometry y="112" width="230" height="26" as="geometry" />
        </mxCell>
        <mxCell id="qCbtmwH_ulc4m0rFLGFR-231" value="setDivisao( Integer, Integer, Integer)" style="text;strokeColor=none;fillColor=none;align=left;verticalAlign=top;spacingLeft=4;spacingRight=4;overflow=hidden;rotatable=0;points=[[0,0.5],[1,0.5]];portConstraint=eastwest;" vertex="1" parent="qCbtmwH_ulc4m0rFLGFR-213">
          <mxGeometry y="138" width="230" height="26" as="geometry" />
        </mxCell>
        <mxCell id="qCbtmwH_ulc4m0rFLGFR-232" value="isRecompensa(Integer): Boolean" style="text;strokeColor=none;fillColor=none;align=left;verticalAlign=top;spacingLeft=4;spacingRight=4;overflow=hidden;rotatable=0;points=[[0,0.5],[1,0.5]];portConstraint=eastwest;" vertex="1" parent="qCbtmwH_ulc4m0rFLGFR-213">
          <mxGeometry y="164" width="230" height="26" as="geometry" />
        </mxCell>
        <mxCell id="qCbtmwH_ulc4m0rFLGFR-217" value="MetaDiaria" style="swimlane;fontStyle=1;align=center;verticalAlign=top;childLayout=stackLayout;horizontal=1;startSize=26;horizontalStack=0;resizeParent=1;resizeParentMax=0;resizeLast=0;collapsible=1;marginBottom=0;" vertex="1" parent="WIyWlLk6GJQsqaUBKTNV-1">
          <mxGeometry x="1260" y="1210" width="190" height="294" as="geometry" />
        </mxCell>
        <mxCell id="qCbtmwH_ulc4m0rFLGFR-241" value="titulo: String" style="text;strokeColor=none;fillColor=none;align=left;verticalAlign=top;spacingLeft=4;spacingRight=4;overflow=hidden;rotatable=0;points=[[0,0.5],[1,0.5]];portConstraint=eastwest;" vertex="1" parent="qCbtmwH_ulc4m0rFLGFR-217">
          <mxGeometry y="26" width="190" height="26" as="geometry" />
        </mxCell>
        <mxCell id="qCbtmwH_ulc4m0rFLGFR-239" value="subtitulo: String" style="text;strokeColor=none;fillColor=none;align=left;verticalAlign=top;spacingLeft=4;spacingRight=4;overflow=hidden;rotatable=0;points=[[0,0.5],[1,0.5]];portConstraint=eastwest;" vertex="1" parent="qCbtmwH_ulc4m0rFLGFR-217">
          <mxGeometry y="52" width="190" height="26" as="geometry" />
        </mxCell>
        <mxCell id="qCbtmwH_ulc4m0rFLGFR-242" value="xpDiario: Integer" style="text;strokeColor=none;fillColor=none;align=left;verticalAlign=top;spacingLeft=4;spacingRight=4;overflow=hidden;rotatable=0;points=[[0,0.5],[1,0.5]];portConstraint=eastwest;" vertex="1" parent="qCbtmwH_ulc4m0rFLGFR-217">
          <mxGeometry y="78" width="190" height="26" as="geometry" />
        </mxCell>
        <mxCell id="qCbtmwH_ulc4m0rFLGFR-240" value="xpAdquirido: Integer" style="text;strokeColor=none;fillColor=none;align=left;verticalAlign=top;spacingLeft=4;spacingRight=4;overflow=hidden;rotatable=0;points=[[0,0.5],[1,0.5]];portConstraint=eastwest;" vertex="1" parent="qCbtmwH_ulc4m0rFLGFR-217">
          <mxGeometry y="104" width="190" height="26" as="geometry" />
        </mxCell>
        <mxCell id="qCbtmwH_ulc4m0rFLGFR-243" value="xpTotal: Integer" style="text;strokeColor=none;fillColor=none;align=left;verticalAlign=top;spacingLeft=4;spacingRight=4;overflow=hidden;rotatable=0;points=[[0,0.5],[1,0.5]];portConstraint=eastwest;" vertex="1" parent="qCbtmwH_ulc4m0rFLGFR-217">
          <mxGeometry y="130" width="190" height="26" as="geometry" />
        </mxCell>
        <mxCell id="qCbtmwH_ulc4m0rFLGFR-218" value="xpBonus:Integer" style="text;strokeColor=none;fillColor=none;align=left;verticalAlign=top;spacingLeft=4;spacingRight=4;overflow=hidden;rotatable=0;points=[[0,0.5],[1,0.5]];portConstraint=eastwest;" vertex="1" parent="qCbtmwH_ulc4m0rFLGFR-217">
          <mxGeometry y="156" width="190" height="26" as="geometry" />
        </mxCell>
        <mxCell id="qCbtmwH_ulc4m0rFLGFR-219" value="" style="line;strokeWidth=1;fillColor=none;align=left;verticalAlign=middle;spacingTop=-1;spacingLeft=3;spacingRight=3;rotatable=0;labelPosition=right;points=[];portConstraint=eastwest;strokeColor=inherit;" vertex="1" parent="qCbtmwH_ulc4m0rFLGFR-217">
          <mxGeometry y="182" width="190" height="8" as="geometry" />
        </mxCell>
        <mxCell id="qCbtmwH_ulc4m0rFLGFR-220" value="calcularXpAdquirido(): Integer" style="text;strokeColor=none;fillColor=none;align=left;verticalAlign=top;spacingLeft=4;spacingRight=4;overflow=hidden;rotatable=0;points=[[0,0.5],[1,0.5]];portConstraint=eastwest;" vertex="1" parent="qCbtmwH_ulc4m0rFLGFR-217">
          <mxGeometry y="190" width="190" height="26" as="geometry" />
        </mxCell>
        <mxCell id="qCbtmwH_ulc4m0rFLGFR-244" value="calcularXpRestante(): Integer" style="text;strokeColor=none;fillColor=none;align=left;verticalAlign=top;spacingLeft=4;spacingRight=4;overflow=hidden;rotatable=0;points=[[0,0.5],[1,0.5]];portConstraint=eastwest;" vertex="1" parent="qCbtmwH_ulc4m0rFLGFR-217">
          <mxGeometry y="216" width="190" height="26" as="geometry" />
        </mxCell>
        <mxCell id="qCbtmwH_ulc4m0rFLGFR-245" value="setMetaDiaria(): Integer" style="text;strokeColor=none;fillColor=none;align=left;verticalAlign=top;spacingLeft=4;spacingRight=4;overflow=hidden;rotatable=0;points=[[0,0.5],[1,0.5]];portConstraint=eastwest;" vertex="1" parent="qCbtmwH_ulc4m0rFLGFR-217">
          <mxGeometry y="242" width="190" height="26" as="geometry" />
        </mxCell>
        <mxCell id="qCbtmwH_ulc4m0rFLGFR-246" value="calcularXpBonus(): Integer" style="text;strokeColor=none;fillColor=none;align=left;verticalAlign=top;spacingLeft=4;spacingRight=4;overflow=hidden;rotatable=0;points=[[0,0.5],[1,0.5]];portConstraint=eastwest;" vertex="1" parent="qCbtmwH_ulc4m0rFLGFR-217">
          <mxGeometry y="268" width="190" height="26" as="geometry" />
        </mxCell>
        <mxCell id="qCbtmwH_ulc4m0rFLGFR-294" style="edgeStyle=orthogonalEdgeStyle;orthogonalLoop=1;jettySize=auto;html=1;exitX=0.5;exitY=0;exitDx=0;exitDy=0;entryX=0.989;entryY=0.279;entryDx=0;entryDy=0;entryPerimeter=0;fontSize=10;rounded=0;" edge="1" parent="WIyWlLk6GJQsqaUBKTNV-1" source="qCbtmwH_ulc4m0rFLGFR-221" target="qCbtmwH_ulc4m0rFLGFR-246">
          <mxGeometry relative="1" as="geometry" />
        </mxCell>
        <mxCell id="qCbtmwH_ulc4m0rFLGFR-221" value="ProgressoXp" style="swimlane;fontStyle=1;align=center;verticalAlign=top;childLayout=stackLayout;horizontal=1;startSize=26;horizontalStack=0;resizeParent=1;resizeParentMax=0;resizeLast=0;collapsible=1;marginBottom=0;" vertex="1" parent="WIyWlLk6GJQsqaUBKTNV-1">
          <mxGeometry x="1430" y="1668" width="200" height="138" as="geometry" />
        </mxCell>
        <mxCell id="qCbtmwH_ulc4m0rFLGFR-222" value="diaSemana: String" style="text;strokeColor=none;fillColor=none;align=left;verticalAlign=top;spacingLeft=4;spacingRight=4;overflow=hidden;rotatable=0;points=[[0,0.5],[1,0.5]];portConstraint=eastwest;" vertex="1" parent="qCbtmwH_ulc4m0rFLGFR-221">
          <mxGeometry y="26" width="200" height="26" as="geometry" />
        </mxCell>
        <mxCell id="qCbtmwH_ulc4m0rFLGFR-223" value="" style="line;strokeWidth=1;fillColor=none;align=left;verticalAlign=middle;spacingTop=-1;spacingLeft=3;spacingRight=3;rotatable=0;labelPosition=right;points=[];portConstraint=eastwest;strokeColor=inherit;" vertex="1" parent="qCbtmwH_ulc4m0rFLGFR-221">
          <mxGeometry y="52" width="200" height="8" as="geometry" />
        </mxCell>
        <mxCell id="qCbtmwH_ulc4m0rFLGFR-224" value="desenharGrafico ()" style="text;strokeColor=none;fillColor=none;align=left;verticalAlign=top;spacingLeft=4;spacingRight=4;overflow=hidden;rotatable=0;points=[[0,0.5],[1,0.5]];portConstraint=eastwest;" vertex="1" parent="qCbtmwH_ulc4m0rFLGFR-221">
          <mxGeometry y="60" width="200" height="26" as="geometry" />
        </mxCell>
        <mxCell id="qCbtmwH_ulc4m0rFLGFR-247" value="mostrarProgressoMeta(): Integer" style="text;strokeColor=none;fillColor=none;align=left;verticalAlign=top;spacingLeft=4;spacingRight=4;overflow=hidden;rotatable=0;points=[[0,0.5],[1,0.5]];portConstraint=eastwest;" vertex="1" parent="qCbtmwH_ulc4m0rFLGFR-221">
          <mxGeometry y="86" width="200" height="26" as="geometry" />
        </mxCell>
        <mxCell id="qCbtmwH_ulc4m0rFLGFR-248" value="setMetaDiaria(): Integer" style="text;strokeColor=none;fillColor=none;align=left;verticalAlign=top;spacingLeft=4;spacingRight=4;overflow=hidden;rotatable=0;points=[[0,0.5],[1,0.5]];portConstraint=eastwest;" vertex="1" parent="qCbtmwH_ulc4m0rFLGFR-221">
          <mxGeometry y="112" width="200" height="26" as="geometry" />
        </mxCell>
        <mxCell id="qCbtmwH_ulc4m0rFLGFR-255" style="edgeStyle=orthogonalEdgeStyle;orthogonalLoop=1;jettySize=auto;html=1;exitX=0;exitY=0.5;exitDx=0;exitDy=0;entryX=1;entryY=0.5;entryDx=0;entryDy=0;rounded=0;" edge="1" parent="WIyWlLk6GJQsqaUBKTNV-1" source="qCbtmwH_ulc4m0rFLGFR-231" target="qCbtmwH_ulc4m0rFLGFR-228">
          <mxGeometry relative="1" as="geometry" />
        </mxCell>
        <mxCell id="qCbtmwH_ulc4m0rFLGFR-256" style="edgeStyle=orthogonalEdgeStyle;orthogonalLoop=1;jettySize=auto;html=1;exitX=1;exitY=0.5;exitDx=0;exitDy=0;entryX=0.735;entryY=1.024;entryDx=0;entryDy=0;entryPerimeter=0;rounded=0;" edge="1" parent="WIyWlLk6GJQsqaUBKTNV-1" source="qCbtmwH_ulc4m0rFLGFR-4" target="qCbtmwH_ulc4m0rFLGFR-246">
          <mxGeometry relative="1" as="geometry" />
        </mxCell>
        <mxCell id="qCbtmwH_ulc4m0rFLGFR-258" style="edgeStyle=orthogonalEdgeStyle;orthogonalLoop=1;jettySize=auto;html=1;exitX=0;exitY=0.5;exitDx=0;exitDy=0;entryX=1;entryY=0.25;entryDx=0;entryDy=0;rounded=0;" edge="1" parent="WIyWlLk6GJQsqaUBKTNV-1" source="qCbtmwH_ulc4m0rFLGFR-9" target="qCbtmwH_ulc4m0rFLGFR-13">
          <mxGeometry relative="1" as="geometry" />
        </mxCell>
        <mxCell id="qCbtmwH_ulc4m0rFLGFR-259" value="Usuário necessita bater a&amp;nbsp;&lt;br&gt;meta de lições para&amp;nbsp;&lt;br&gt;desbloquear" style="shape=note;size=20;whiteSpace=wrap;html=1;align=left;" vertex="1" parent="WIyWlLk6GJQsqaUBKTNV-1">
          <mxGeometry x="900" y="1520" width="120" height="100" as="geometry" />
        </mxCell>
        <mxCell id="qCbtmwH_ulc4m0rFLGFR-261" style="edgeStyle=orthogonalEdgeStyle;orthogonalLoop=1;jettySize=auto;html=1;exitX=0;exitY=0.5;exitDx=0;exitDy=0;entryX=1;entryY=0.5;entryDx=0;entryDy=0;rounded=0;" edge="1" parent="WIyWlLk6GJQsqaUBKTNV-1" source="qCbtmwH_ulc4m0rFLGFR-4" target="qCbtmwH_ulc4m0rFLGFR-29">
          <mxGeometry relative="1" as="geometry" />
        </mxCell>
        <mxCell id="qCbtmwH_ulc4m0rFLGFR-271" value="+ lição" style="endArrow=open;html=1;endSize=12;startArrow=diamondThin;startSize=14;startFill=0;edgeStyle=orthogonalEdgeStyle;rounded=0;" edge="1" parent="WIyWlLk6GJQsqaUBKTNV-1">
          <mxGeometry x="-0.9322" y="-30" relative="1" as="geometry">
            <mxPoint x="660" y="1450" as="sourcePoint" />
            <mxPoint x="1250" y="1450" as="targetPoint" />
            <mxPoint as="offset" />
          </mxGeometry>
        </mxCell>
        <mxCell id="qCbtmwH_ulc4m0rFLGFR-272" value="1" style="edgeLabel;resizable=0;html=1;align=left;verticalAlign=top;" connectable="0" vertex="1" parent="qCbtmwH_ulc4m0rFLGFR-271">
          <mxGeometry x="-1" relative="1" as="geometry" />
        </mxCell>
        <mxCell id="qCbtmwH_ulc4m0rFLGFR-273" value="1" style="edgeLabel;resizable=0;html=1;align=right;verticalAlign=top;" connectable="0" vertex="1" parent="qCbtmwH_ulc4m0rFLGFR-271">
          <mxGeometry x="1" relative="1" as="geometry" />
        </mxCell>
        <mxCell id="qCbtmwH_ulc4m0rFLGFR-280" value="+ metaDiaria" style="text;align=center;fontStyle=0;verticalAlign=middle;spacingLeft=3;spacingRight=3;strokeColor=none;rotatable=0;points=[[0,0.5],[1,0.5]];portConstraint=eastwest;" vertex="1" parent="WIyWlLk6GJQsqaUBKTNV-1">
          <mxGeometry x="1180" y="1422" width="70" height="12" as="geometry" />
        </mxCell>
        <mxCell id="qCbtmwH_ulc4m0rFLGFR-281" value="1" style="text;strokeColor=none;fillColor=none;align=left;verticalAlign=middle;spacingTop=-1;spacingLeft=4;spacingRight=4;rotatable=0;labelPosition=right;points=[];portConstraint=eastwest;" vertex="1" parent="WIyWlLk6GJQsqaUBKTNV-1">
          <mxGeometry x="1240" y="2064" width="10" height="14" as="geometry" />
        </mxCell>
        <mxCell id="qCbtmwH_ulc4m0rFLGFR-282" value="" style="text;strokeColor=none;fillColor=none;align=left;verticalAlign=middle;spacingTop=-1;spacingLeft=4;spacingRight=4;rotatable=0;labelPosition=right;points=[];portConstraint=eastwest;" vertex="1" parent="WIyWlLk6GJQsqaUBKTNV-1">
          <mxGeometry x="1380" y="1512" width="20" height="14" as="geometry" />
        </mxCell>
        <mxCell id="qCbtmwH_ulc4m0rFLGFR-288" value="2" style="text;align=center;fontStyle=0;verticalAlign=middle;spacingLeft=3;spacingRight=3;strokeColor=none;rotatable=0;points=[[0,0.5],[1,0.5]];portConstraint=eastwest;fontSize=10;" vertex="1" parent="WIyWlLk6GJQsqaUBKTNV-1">
          <mxGeometry x="1380" y="1512" width="20" height="14" as="geometry" />
        </mxCell>
        <mxCell id="qCbtmwH_ulc4m0rFLGFR-289" value="6" style="text;align=center;fontStyle=0;verticalAlign=middle;spacingLeft=3;spacingRight=3;strokeColor=none;rotatable=0;points=[[0,0.5],[1,0.5]];portConstraint=eastwest;fontSize=10;" vertex="1" parent="WIyWlLk6GJQsqaUBKTNV-1">
          <mxGeometry x="1170" y="1880" width="10" height="10" as="geometry" />
        </mxCell>
        <mxCell id="qCbtmwH_ulc4m0rFLGFR-290" value="3" style="text;align=center;fontStyle=0;verticalAlign=middle;spacingLeft=3;spacingRight=3;strokeColor=none;rotatable=0;points=[[0,0.5],[1,0.5]];portConstraint=eastwest;fontSize=10;" vertex="1" parent="WIyWlLk6GJQsqaUBKTNV-1">
          <mxGeometry x="660" y="1806" width="10" height="10" as="geometry" />
        </mxCell>
        <mxCell id="qCbtmwH_ulc4m0rFLGFR-291" value="4" style="text;align=center;fontStyle=0;verticalAlign=middle;spacingLeft=3;spacingRight=3;strokeColor=none;rotatable=0;points=[[0,0.5],[1,0.5]];portConstraint=eastwest;fontSize=10;" vertex="1" parent="WIyWlLk6GJQsqaUBKTNV-1">
          <mxGeometry x="751" y="2159" width="20" height="26" as="geometry" />
        </mxCell>
        <mxCell id="qCbtmwH_ulc4m0rFLGFR-292" value="5" style="text;align=center;fontStyle=0;verticalAlign=middle;spacingLeft=3;spacingRight=3;strokeColor=none;rotatable=0;points=[[0,0.5],[1,0.5]];portConstraint=eastwest;fontSize=10;" vertex="1" parent="WIyWlLk6GJQsqaUBKTNV-1">
          <mxGeometry x="490" y="1996" width="30" height="26" as="geometry" />
        </mxCell>
        <mxCell id="qCbtmwH_ulc4m0rFLGFR-295" value="7" style="text;align=center;fontStyle=0;verticalAlign=middle;spacingLeft=3;spacingRight=3;strokeColor=none;rotatable=0;points=[[0,0.5],[1,0.5]];portConstraint=eastwest;fontSize=10;" vertex="1" parent="WIyWlLk6GJQsqaUBKTNV-1">
          <mxGeometry x="501" y="1356" width="31" height="26" as="geometry" />
        </mxCell>
        <mxCell id="qCbtmwH_ulc4m0rFLGFR-296" value="8" style="text;align=center;fontStyle=0;verticalAlign=middle;spacingLeft=3;spacingRight=3;strokeColor=none;rotatable=0;points=[[0,0.5],[1,0.5]];portConstraint=eastwest;fontSize=10;" vertex="1" parent="WIyWlLk6GJQsqaUBKTNV-1">
          <mxGeometry x="1450" y="1486" width="26" height="18" as="geometry" />
        </mxCell>
        <mxCell id="qCbtmwH_ulc4m0rFLGFR-297" value="9" style="text;align=center;fontStyle=0;verticalAlign=middle;spacingLeft=3;spacingRight=3;strokeColor=none;rotatable=0;points=[[0,0.5],[1,0.5]];portConstraint=eastwest;fontSize=10;" vertex="1" parent="WIyWlLk6GJQsqaUBKTNV-1">
          <mxGeometry x="1335" y="1504" width="22" height="18" as="geometry" />
        </mxCell>
      </root>
    </mxGraphModel>
  </diagram>
</mxfile>
